<svg xmlns="http://www.w3.org/2000/svg" viewBox="0 0 109.864 109.864"><rect x=".707" y=".707" width="108.449" height="108.449" rx="7.546" ry="7.546" fill="none" stroke="#b32025" stroke-miterlimit="10" stroke-width="1.415"/><path d="m46.448 43.012 8.558 10.046 26.266-31.022c1.629-2.117 1.769-3.024 1.315-4.14-.491-1.208-2.5-2.651-3.581-2.791-1.217-.157-1.953.302-3.209 1.291L46.448 43.012ZM89.75 97.354 54.239 54.61l-8.977-10.558-4.977 4.656c-3.407 3.407-3.932 8.063-.437 11.558l44.495 42.379c1.035.942 2.36 1.384 3.733.965 1.485-.453 2.351-1.612 2.721-2.837.372-1.233-.174-2.326-1.047-3.419Z" fill="#b3aca5"/><g fill="#b32025"><path d="m54.239 54.61 9.557 11.503 5.761-5.356c3.513-3.513 3.465-8.318.04-11.743L25.895 7.09s-1.671-2.029-3.437-2.071c-1.766-.043-3.511.995-4.23 2.718-.688 1.651-.194 2.809 1.315 4.97l29.306 35.565 5.388 6.338ZM45.534 65.682 28.418 86.706c-1.255 1.337-2.032 3.683-1.331 5.368.733 1.76 2.403 2.841 4.287 2.841 1.061 0 1.937-.373 3.082-1.523l20.328-18.899-9.25-8.81Z"/></g></svg>