<?xml version="1.0" encoding="UTF-8"?><svg id="a" xmlns="http://www.w3.org/2000/svg" width="67.7" height="92.66" viewBox="0 0 67.7 92.66"><g id="b"><path d="M60.54,12.02c-.67-1.6-2.34-2.86-4.05-2.86h0c-.96,0-1.55.08-2.72,1l-19.59,17.46,8.45,8.11,16.56-19.45c1.35-1.8,1.99-2.74,1.35-4.27Z" fill="#7c7469" stroke-width="0"/><path d="M66.19,85.39l-32.55-39.23h0s-8.65-10.46-8.65-10.46l-5.31,4.79c-3.16,3.16-3.22,8.08.01,11.32l41.28,39.78c.92.95,1.85,1.08,2.84,1.08,1.75,0,2.88-1.03,3.64-2.55.65-1.56-.07-3.11-1.27-4.73Z" fill="#7c7469" stroke-width="0"/><path d="M33.71,46.23h0s8.69,10.48,8.69,10.48l5.45-5.06c3.26-3.26,3.21-7.71.04-10.88L7.39,1.92S5.84.04,4.2,0C2.57-.04.95.92.28,2.52c-.64,1.53-.18,2.6,1.22,4.61l32.22,39.1h-.02Z" fill="#c4d600" stroke-width="0"/><path d="M25.01,56.92l-15.28,18.77c-1.16,1.24-1.88,3.41-1.23,4.97.68,1.63,2.23,2.63,3.97,2.63.98,0,1.79-.35,2.86-1.41l18.12-16.85-8.43-8.12Z" fill="#c4d600" stroke-width="0"/></g></svg>