<svg id="Lockup" xmlns="http://www.w3.org/2000/svg" viewBox="0 0 287.497 125.343"><g id="logo"><path d="M427.664,254.837c1.86,0,3.1,1.239,3.986,3.453,1.062-2.214,2.568-3.453,4.694-3.453h14.878a4.061,4.061,0,0,1,4.073,4.073v7.828c0,2.657-1.327,4.074-4.073,4.074-2.657,0-4.074-1.417-4.074-4.074v-3.754H436.609a2.412,2.412,0,0,0-2.656,2.746v27.188h10.006c2.659,0,4.074,1.328,4.074,4.074s-1.415,4.074-4.074,4.074h-26.39c-2.658,0-3.985-1.329-3.985-4.074s1.327-4.074,3.985-4.074h8.236V262.984h-7.262c-2.656,0-3.985-1.328-3.985-4.074,0-2.657,1.329-4.073,3.985-4.073Z" transform="translate(-358.259 -221.953)" fill="#7c7469"/><path d="M539.326,254.837c2.657,0,4.074,1.416,4.074,4.073v34.008h10.1c2.747,0,4.074,1.328,4.074,4.074s-1.327,4.074-4.074,4.074h-28.6c-2.657,0-4.074-1.329-4.074-4.074s1.417-4.074,4.074-4.074h10.362V262.984H526.72c-2.745,0-4.074-1.328-4.074-4.074,0-2.657,1.329-4.073,4.074-4.073Zm4.22-17.616a5.858,5.858,0,1,1-5.818-5.818A5.9,5.9,0,0,1,543.546,237.221Z" transform="translate(-358.259 -221.953)" fill="#7c7469"/><path d="M605.237,258.91a4.6,4.6,0,0,1-.267,1.595l-14.878,38.081a3.721,3.721,0,0,1-3.72,2.48h-5.933a3.693,3.693,0,0,1-3.809-2.48l-15.054-38.081a3.234,3.234,0,0,1-.355-1.595,4.083,4.083,0,0,1,4.164-4.073,3.8,3.8,0,0,1,3.718,2.656l14.348,36.134,13.9-36.134a3.8,3.8,0,0,1,3.721-2.656A4.083,4.083,0,0,1,605.237,258.91Z" transform="translate(-358.259 -221.953)" fill="#7c7469"/><path d="M486.242,277.559,453.5,316.412c-1.287,1.371-2.084,3.777-1.365,5.5a4.7,4.7,0,0,0,4.4,2.913,4.19,4.19,0,0,0,3.16-1.562l40.192-42.715a4.415,4.415,0,0,0,.041-6.041" transform="translate(-358.259 -221.953)" fill="#aa142d"/><path d="M486.242,277.559l31.188-38.267c1.492-1.989,2.2-3.03,1.492-4.723a5.142,5.142,0,0,0-4.481-3.161h0a4.023,4.023,0,0,0-3.008,1.107L472.8,274.279a4.769,4.769,0,0,0,.016,6.53l47.785,51.071a3.915,3.915,0,0,0,3.138,1.192,4.4,4.4,0,0,0,4.027-2.818c.719-1.728-.077-3.438-1.4-5.23l-40.125-47.465" transform="translate(-358.259 -221.953)" fill="#7c7469"/><path d="M499.926,274.511l-46.664-50.433s-1.713-2.08-3.524-2.124a4.6,4.6,0,0,0-4.337,2.787c-.7,1.693-.2,2.881,1.348,5.1l39.678,47.925" transform="translate(-358.259 -221.953)" fill="#aa142d"/><path d="M390.7,254.837c5.017,0,8.206,3.311,8.206,8.4v37.832H363.4a4.814,4.814,0,0,1-5.143-4.93V283.109a8.255,8.255,0,0,1,7-8.147l25.506-3.573v-8.405H362.4a4.013,4.013,0,0,1-4.141-4.074c0-2.87,2.142-4.073,4.355-4.073Zm.058,38.081V279.625l-24.354,3.4v9.9Z" transform="translate(-358.259 -221.953)" fill="#7c7469"/></g><g id="Labs"><path d="M564.256,347.258H551.132a2.454,2.454,0,0,1-2.421-2.421V320.623a2.4,2.4,0,1,1,4.8,0v21.834h10.742a2.147,2.147,0,0,1,2.382,2.38A2.187,2.187,0,0,1,564.256,347.258Z" transform="translate(-358.259 -221.953)" fill="#fb595a"/><path d="M590.046,347.3a2.235,2.235,0,0,1-2.46-2.071L587.1,342H577.018l-.418,3.224a2.294,2.294,0,0,1-2.473,2.073,2.446,2.446,0,0,1-1.849-.837,2.018,2.018,0,0,1-.507-1.6l3.33-23.423c.22-1.478,1.119-3.237,4.153-3.237h5.713c2.386,0,3.849,1.139,4.119,3.207l3.291,23.453a2.11,2.11,0,0,1-.493,1.68A2.41,2.41,0,0,1,590.046,347.3Zm-12.361-10.1h8.741l-1.9-13.837c-.06-.318-.115-.318-.236-.318H579.86c-.088,0-.158,0-.2.31Z" transform="translate(-358.259 -221.953)" fill="#fb595a"/><path d="M608.751,347.258H600.39V318.2H612.6c3.944,0,6.594,2.429,6.594,6.044V326.3a7.12,7.12,0,0,1-1.826,5.263,5.481,5.481,0,0,1,2.242,4.688C619.608,343.554,615.956,347.258,608.751,347.258Zm-3.558-4.8h3.861c3.952,0,5.791-1.973,5.791-6.208,0-.806-.248-1.628-2.083-1.628h-7.569Zm0-12.639h6.547c1.524,0,2.537-.6,2.537-3.52v-1.992c0-.885-.366-1.264-1.225-1.264h-7.859Z" transform="translate(-358.259 -221.953)" fill="#fb595a"/><path d="M633.006,347.258h-3.935c-2.355,0-2.61-1.587-2.61-2.268a2.342,2.342,0,0,1,2.61-2.533H633.5c4.789,0,7.231-2.149,7.468-6.57a1.844,1.844,0,0,0-.395-1.345,2.111,2.111,0,0,0-1.546-.564h-4.771c-5.572,0-8.4-2.673-8.4-7.944,0-5.123,2.891-7.831,8.36-7.831h7.5c2.337,0,2.685,1.491,2.685,2.381,0,.918-.348,2.458-2.685,2.458h-8.181c-1.912,0-2.764.958-2.764,3.105,0,2.1.864,3.029,2.8,3.029h4.794c4.487,0,7.389,2.154,7.389,5.485C645.756,343.019,641.465,347.258,633.006,347.258Z" transform="translate(-358.259 -221.953)" fill="#fb595a"/></g></svg>