<svg xmlns="http://www.w3.org/2000/svg" xmlns:xlink="http://www.w3.org/1999/xlink" width="108px" viewBox="0 0 302 302"><g fill="#FF9400"><path d="M227.6,92.9c5.2,13,17.9,22.1,32.7,22.1c19.4,0,35.2-15.8,35.2-35.2s-15.8-35.2-35.2-35.2 c-19.4,0-35.2,15.8-35.2,35.2c0,2.3,0.2,4.5,0.6,6.7l-98.1,24.6L154,59c3.2,1.1,6.6,1.8,10.1,1.8c16.4,0,29.7-13.3,29.7-29.7c0-16.4-13.3-29.7-29.7-29.7s-29.7,13.3-29.7,29.7c0,10.5,5.4,19.7,13.6,25l-27.9,55.1L90.5,94.2c1.4-3.2,2.1-6.8,2.1-10.6 c0-14.9-12.1-27-27-27c-14.9,0-27,12.1-27,27c0,14.9,12.1,27,27,27c8.8,0,16.6-4.2,21.6-10.7l28.5,16.3l-62.2,49.9 c-5.6-5.3-13.1-8.6-21.4-8.6c-17.1,0-30.9,13.8-30.9,30.9c0,17.1,13.8,30.9,30.9,30.9S63,205.4,63,188.4c0-6.3-1.9-12.3-5.2-17.2 l60-48.1l-7.5,106.4c-19.1,0.6-34.4,16.2-34.4,35.5c0,19.6,15.9,35.5,35.5,35.5c19.6,0,35.5-15.9,35.5-35.5c0-17.7-13-32.4-30-35.1 l7.6-107.5l87,67.9c-4.1,6.1-6.4,13.5-6.4,21.4c0,21.4,17.4,38.8,38.8,38.8s38.8-17.4,38.8-38.8c0-21.4-17.4-38.8-38.8-38.8 c-11.1,0-21.2,4.7-28.2,12.2L129,117.6L227.6,92.9z"></path></g></svg>